<svg id="Layer_1" data-name="Layer 1" xmlns="http://www.w3.org/2000/svg" viewBox="0 0 107.46 106.84"><defs><style>.cls-1{fill:#ce2039;}</style></defs><path class="cls-1" d="M153.73,99.89a53.16,53.16,0,0,1-53.42,53.53c-30,0-54.29-24-54-53.57A53.51,53.51,0,0,1,99.68,46.58C130,46.57,153.69,69.9,153.73,99.89ZM100,149.65c27.58,0,50-22.36,50-49.73a49.86,49.86,0,1,0-50,49.73Z" transform="translate(-46.27 -46.58)"/><path class="cls-1" d="M103.05,143c-21.92-.07-38.55-12.26-44.2-30.15A43,43,0,0,1,75.24,64.72a43.73,43.73,0,0,1,51.09.91l1.42,1.12c1.13.92,2,2,.78,3.36-1.11,1.24-2.22.43-3.17-.32a40.39,40.39,0,0,0-16-8A39.44,39.44,0,0,0,66.5,79.6a39.3,39.3,0,1,0,72.85,17.16A37.94,37.94,0,0,0,133,78.28c-.9-1.34-2.4-3-.48-4.27s2.92.86,3.74,2.17c8.89,14.29,9.82,29.13,2,44C130.2,135.3,116.93,142.4,103.05,143Z" transform="translate(-46.27 -46.58)"/><path class="cls-1" d="M100.16,70.79c1.65,0,3.31,0,5,0,3.58.12,5.53,2,5.88,5.55.41,4.11-1.83,9.63.95,12,2.4,2,7.76.57,11.82.66a4.53,4.53,0,0,1,.89.12c4.63,1.1,6,5.39,4.93,15.64-.43,4.08-2.66,6-6.9,6-3.73,0-8.53-1.63-10.9.64s-.58,7.11-.74,10.81c-.22,4.89-2.25,7-7.25,7.1-14.43.37-14.7.21-14.6-14.11,0-3.38-.64-5-4.42-4.56a61.22,61.22,0,0,1-8.13.06c-3.62,0-5.5-2-5.93-5.47a10.15,10.15,0,0,1,0-1.35C70.78,91.23,68.68,88.19,85,89c3.44.18,4.69-.87,4.16-4.22a19.33,19.33,0,0,1,0-3.14C89.13,71.34,89.69,70.79,100.16,70.79ZM93,115.84c0,2,.1,3.9,0,5.84-.18,3,1.32,4.06,4.07,4,2.11,0,4.22,0,6.32,0,2.73,0,4.18-1.18,4.07-4.1-.12-3.14.21-6.31-.08-9.43-.37-3.85.81-5.56,4.94-5.13,3,.31,6-.1,9,.11,3.39.23,4.46-1.15,4.38-4.45-.29-11.32,1.47-9.84-9.7-9.92-8.58-.05-8.53,0-8.6-8.5-.08-11,1.84-9.72-10.76-9.83-2.73,0-3.77,1.17-3.67,3.82.13,3.29-.23,6.62.1,9.88.39,3.93-1.28,5-4.9,4.68-3.14-.26-6.32,0-9.47-.08s-4.24,1.3-4.21,4.32c.1,12.07-.78,9.86,9.63,10S92.79,105.87,93,115.84Z" transform="translate(-46.27 -46.58)"/></svg>