<?xml version="1.0" encoding="utf-8"?>
<!-- Generator: Adobe Illustrator 25.4.1, SVG Export Plug-In . SVG Version: 6.00 Build 0)  -->
<svg version="1.1" id="Layer_1" xmlns="http://www.w3.org/2000/svg" xmlns:xlink="http://www.w3.org/1999/xlink" x="0px" y="0px"
	 viewBox="0 0 103.7 107.6" style="enable-background:new 0 0 103.7 107.6;" xml:space="preserve">
<style type="text/css">
	.st0{fill:#CD1F38;}
</style>
<path class="st0" d="M51.8,96.3c-4.5,0-8.9-0.1-13.4,0c-2,0-2.7-0.8-2.6-2.7c0.1-4.1,1.5-7.7,4.4-10.6c1.5-1.4,1.2-2.3,0.3-3.8
	c-3.5-5.6-8.3-9.1-15.1-8.3c-6.4,0.7-10.7,4.5-12.7,10.7c-0.8,2.5-0.2,3.2,2.4,3.2c5.4-0.2,10.9,0,16.4,0c1.2,0,2.6-0.1,2.5,1.7
	c-0.1,1.6-1.4,1.4-2.4,1.4c-6.5,0-13.1,0-19.6,0c-2.3,0-3-0.9-2.9-3.1c0.4-7.4,5.3-13.8,12.3-16.1c7.2-2.4,15.3-0.3,19.6,5.8
	c2.4,3.5,4.3,5.6,8.9,3.6c2.3-0.8,4.9-0.6,7,0.5c2.3,1.1,3.3,0.2,4.6-1.7c6.6-10,18.4-12.2,27.1-5.2c4.2,3.4,6.2,8,6.7,13.3
	c0.2,2.1-0.7,2.9-2.9,2.9c-6.4-0.1-12.9,0-19.3,0c-1.3,0-3,0.3-2.9-1.7c0.1-1.7,1.7-1.4,2.8-1.4c5.3,0,10.7-0.2,16,0.1
	c3.1,0.1,3.1-1.3,2.5-3.5c-3.1-10.6-16.7-14-24.5-6.2c-0.9,0.9-1.7,2-2.5,3c-1.7,2-2.1,3.6,0.2,5.7c2.5,2.3,3.4,5.7,3.7,9.1
	c0.2,2.3-0.4,3.4-3,3.3C60.7,96.2,56.3,96.3,51.8,96.3z M51.8,93.1c3.6,0,7.2-0.1,10.8,0c2.3,0.1,2.5-0.7,2-2.7c-2-7-9.4-11-16.3-9
	c-4.5,1.3-7.9,4.9-9.1,9.3c-0.4,1.7,0,2.3,1.8,2.3C44.6,93,48.2,93.1,51.8,93.1z"/>
<path class="st0" d="M51.6,54c-14.8,0-26.8-12.1-26.8-26.9c0-0.1,0-0.1,0-0.2C25,12,37.1,0.1,52.1,0.2S79,12.5,78.8,27.4l0,0
	C78.8,42.3,66.8,54,51.6,54z M75,26.9C74.9,14.1,64.5,3.8,51.6,3.9S28.5,14.4,28.6,27.2C28.6,39.9,39.4,50.6,52,50.4
	C64.8,50.3,75.1,39.9,75,27C75,27,75,27,75,26.9z"/>
<path class="st0" d="M86.4,55.9c0,5.1-4.1,9.3-9.2,9.3c0,0,0,0-0.1,0c-5.2,0-9.3-4.2-9.3-9.4c0-5.2,4.2-9.3,9.4-9.3l0,0
	C82.2,46.6,86.4,50.8,86.4,55.9C86.4,55.9,86.4,55.9,86.4,55.9z M77,49.8c-3.4,0-6.2,2.8-6.2,6.2c0,0,0,0,0,0.1
	c0.1,3.4,3,6.2,6.4,6.1c3.3-0.1,5.9-2.9,5.9-6.2c0.1-3.3-2.6-6.1-5.9-6.2C77.2,49.7,77.1,49.7,77,49.8z"/>
<path class="st0" d="M36.2,56c0,5.1-4.2,9.3-9.3,9.3c0,0,0,0,0,0c-5.2,0-9.3-4.3-9.3-9.4c0-5.2,4.3-9.3,9.4-9.3l0,0
	C32.1,46.6,36.2,50.8,36.2,56C36.2,56,36.2,56,36.2,56z M33.2,55.9c-0.1-3.4-2.9-6.1-6.3-6.2c-3.4,0-6.2,2.8-6.2,6.2
	c0.1,3.4,2.8,6.2,6.2,6.2C30.3,62,33,59.3,33.2,55.9L33.2,55.9z"/>
<path class="st0" d="M52.1,75.9c-4.7,0.2-8.7-3.5-8.8-8.2c-0.2-4.7,3.5-8.7,8.2-8.8c0.2,0,0.3,0,0.5,0c4.7,0,8.5,3.8,8.6,8.5
	C60.5,72,56.8,75.8,52.1,75.9z M57.4,67.4c0-3-2.4-5.4-5.3-5.4c0,0,0,0-0.1,0c-2.9,0-5.3,2.3-5.3,5.2c0,0.1,0,0.2,0,0.2
	c0,3,2.4,5.4,5.4,5.4c0,0,0,0,0,0C55,72.8,57.4,70.4,57.4,67.4z"/>
<path class="st0" d="M31.4,26.9C31.3,15.8,40.2,6.7,51.3,6.6c0.2,0,0.4,0,0.6,0c11.3,0,20.4,9.1,20.5,20.3c0,0.1,0,0.1,0,0.2
	c0,11.3-9.1,20.5-20.5,20.6c-11.3,0.1-20.5-9-20.5-20.3C31.4,27.2,31.4,27.1,31.4,26.9z M68.7,27.2c0.1-9.2-7.3-16.8-16.6-16.9
	c0,0,0,0,0,0c-9.3-0.1-16.9,7.2-17.2,16.4c-0.2,9.1,7.6,17,16.9,17.1C61,43.9,68.6,36.5,68.7,27.2z"/>
<path class="st0" d="M51.8,14.7c3.5-0.4,6.8-0.6,6,4.7c-0.3,2.1,1.6,1.7,2.8,1.6c3.1-0.2,4.3,1.3,4,4.3c-0.1,1.3-0.1,2.6,0,3.9
	c0.2,2.6-0.7,4.1-3.6,3.7c-2.6-0.4-3.7,0.6-3.3,3.2s-0.9,3.9-3.6,3.6c-1.4-0.1-2.9-0.1-4.3,0c-2.8,0.2-4.3-0.8-3.9-3.8
	s-1-3.3-3.4-3.1s-3.4-0.8-3.2-3.2c0.1-1.6,0.1-3.1,0-4.7c-0.2-2.8,0.8-4.2,3.8-4c1.1,0.1,3.1,0.6,2.8-1.6
	C45,14.2,48.2,14.3,51.8,14.7z M60.7,27.1c0.4-2.2-0.9-2.4-2.5-2.2c-3,0.4-4.5-0.6-4.1-3.9c0.2-1.8-0.2-3-2.5-2.9
	c-2.5,0.1-1.9,1.7-1.8,3c0.3,3-1,4.1-3.9,3.8c-1.7-0.2-3-0.1-2.9,2.3s1.6,2.3,3.2,2.2c2.7-0.2,4,0.7,3.7,3.5c-0.2,1.5-0.4,3.1,2.2,3
	c2.2-0.1,2.3-1.3,2.1-2.8c-0.3-3,0.9-4.1,3.8-3.7C59.5,29.6,61.1,29.6,60.7,27.1z"/>
</svg>
