<svg id="Layer_1" data-name="Layer 1" xmlns="http://www.w3.org/2000/svg" viewBox="0 0 103.98 103.99"><defs><style>.cls-1{fill:#ce2039;}</style></defs><path class="cls-1" d="M63.09,147.11c-4.28-4.19-8.63-8.32-12.84-12.59-2.81-2.86-3-6.72-.49-9s5.31-2.5,7.69-.36,3.39,1.26,4.68-1c2.37-4.24,5.07-8.29,8.86-11.43,1.74-1.43,1.77-2.46.1-4.13-4.31-4.32-4.24-5,.27-9.35,2.28-2.23,4-5.67,8.38-3.53,1.05.52,1.92-1.2,2.75-2Q94.23,82,106,70.28c3.82-3.81,5.42-4.17,10.29-1.63,1.5.78,2.15.26,3.1-.55a8,8,0,0,1,7.93-1.78c2.43.89,3.69,0,5.2-1.5,5-5.11,10.09-10.11,15.12-15.19,1.1-1.11,2.39-2.35,3.75-1.1s.13,2.63-1,3.72c-5.25,5.23-10.45,10.51-15.74,15.7-1.27,1.25-2.15,2.4-1.1,4.17.07.11.09.26.16.37,2.75,4.71-4.53,7.89-1.54,13.3s-2.62,8.36-5.78,11.62c-6.58,6.76-13.31,13.37-20,20-1.3,1.31-2.1,2.3-1.78,4.7.63,4.71-3.93,6.73-6.87,9.17-2.58,2.14-4.6-.57-6.42-2.35-1-1-1.88-2.57-3.5-.66-3.62,4.28-8.18,7.38-13,10.15-1.67,1-2.11,1.87-.59,3.35.57.54,1.3,1.33,1.28,2-.12,4.94,3.26,4.31,6.44,4.3q21.61-.06,43.25,0a29,29,0,0,1,3.61.23,1.66,1.66,0,0,1,1.45,1.69,1.71,1.71,0,0,1-1.67,1.9c-.94.09-1.89.08-2.83.08H58.31c-.81,0-1.62,0-2.42,0a1.88,1.88,0,1,1,0-3.75c2.22-.11,4.45,0,6.67,0Zm62.07-77.25a4.34,4.34,0,0,0-4.1,2.16c-.72,1.4,1,1.93,1.67,2.86.15.22.39.37.56.58,1,1.18,2.86,2.33,1.06,4-1.49,1.37-2.66-.07-3.72-1.13q-2.41-2.43-4.86-4.84c-3.52-3.48-4.12-3.5-7.53-.11q-9.72,9.69-19.43,19.42c-6.24,6.24-6.24,6.24.12,12.63l.85.86c1,1.06,2.57,2.19,1.15,3.7s-2.63.1-3.68-.94c-2.77-2.75-5.7-5.37-8.24-8.33-2.05-2.39-3.1-.78-4.35.6s-3.54,2.23-1,4.7Q84,115.94,94,126.3c2.19,2.3,3.14.67,4.34-.68s3.82-2.31,1-4.6c-1.57-1.26-2.87-2.84-4.32-4.26-1-1-1.51-2.06-.52-3.19s2.16-.45,3.08.44a23.12,23.12,0,0,1,1.71,1.72c1,1.26,1.88,1.54,3.22.18,8.42-8.54,16.92-17,25.39-25.47,1.29-1.29,1.81-2.74.51-4.29-2.47-3-2-5.56.59-8.2,1.58-1.62,1.57-3.66.55-5.61A4.68,4.68,0,0,0,125.16,69.86ZM80.48,117.5c-1.64-1.39-2.75-2.35-3.88-3.28s-1.69.17-2.31.76a43.53,43.53,0,0,0-7.74,9.24c-4,6.6-4,6.51,1.69,11.51,1.08,1,1.83,1.27,3.08.45,4.58-3,9.41-5.68,13.27-9.78,1.78-1.9,1.51-2.75-.11-4.47s-2.76-1.39-4,.25a15.12,15.12,0,0,1-2,2c-1.23,1.06-2.4,3.32-4.22,1.36-1.57-1.68.41-2.89,1.5-4C77.07,120.28,78.57,119.13,80.48,117.5Zm-8.12,28.64a3.81,3.81,0,0,0-.39-1c-5.67-5.7-11.33-11.41-17-17.08-.82-.81-1.76-.42-2.47.35a1.69,1.69,0,0,0-.11,2.52q8.19,8.29,16.46,16.53a1.89,1.89,0,0,0,2.59.11A5.35,5.35,0,0,0,72.36,146.14Z" transform="translate(-48.01 -48.01)"/><path class="cls-1" d="M98.37,100.46a1.74,1.74,0,0,1-1.6,1.91c-1.34.23-5.14-3.56-5-5a1.63,1.63,0,0,1,1.76-1.72C94.69,95.63,98.32,99.23,98.37,100.46Z" transform="translate(-48.01 -48.01)"/><path class="cls-1" d="M112.19,86c.16,1.5-.5,2.55-1.42,2.36-2.51-.51-4.06-2.43-5-4.66a1.43,1.43,0,0,1,1.4-2C109.74,82.13,110.88,84.42,112.19,86Z" transform="translate(-48.01 -48.01)"/><path class="cls-1" d="M101,88.68c1.63,1.28,3.79,2.53,4.4,4.95a1.49,1.49,0,0,1-2.13,1.57c-2.13-1-4.1-2.51-4.56-5C98.5,89.26,99.51,88.61,101,88.68Z" transform="translate(-48.01 -48.01)"/></svg>