<svg id="Layer_1" data-name="Layer 1" xmlns="http://www.w3.org/2000/svg" viewBox="0 0 62.63 103.49"><defs><style>.cls-1{fill:#cd1f38;}</style></defs><path class="cls-1" d="M124.86,133.8c-3.57,4.16-8,5-12.67,5.46s-9.18,1-13.71,1.79a22.58,22.58,0,0,1-14.28-1.57c-1.57-.76-2.13-.52-2.53,1.23a24.89,24.89,0,0,1-2.07,5.44,2.91,2.91,0,0,1-4.24,1.31c-1.62-.88-.93-2.32-.21-3.63,2.31-4.17,2-8.38.86-12.94-2.48-10-3.53-20.34-4.39-30.65-.15-1.69,0-3.06-1.79-4.59-2-1.68-.86-5.1-.29-7.54,1.75-7.41,1.68-14.94,2.18-22.44.62-9.36,3.59-13.67,11.52-16.46a19.39,19.39,0,0,1,20.49,5.71,9.24,9.24,0,0,1,2.21,4.44c1,7.43,2.35,15-1.24,22.13-.8,1.59-.11,1.71,1.07,2.28,5.62,2.7,9.72,6.76,11.48,13a23.27,23.27,0,0,0,2.59,5.09c1.5,2.56,3.73,5.49,1.14,8.84-.68.88.15,1.87.48,2.74a24.3,24.3,0,0,0,5.22,8c5.34,5.71,5.72,12.36,2.92,19C127,146.59,121.48,150,115,151.64a2.12,2.12,0,0,1-2.77-1.26c-.54-1.46.31-2.31,1.64-2.87,3.55-1.51,7.44-2.47,9.69-6.09C124.94,139.24,126.09,137.07,124.86,133.8ZM113,98.1c-1.63,4.06-1.63,4.06-5.28,4.11-1.54,0-3.09-.12-4.61,0-6.19.56-11.82.3-15.45-6.12-1-1.69-3.13-3-4.48-4.77-1.13-1.45-1.71-1.82-3.47-.32-4.13,3.51-3.95,7.88-3.71,12.56.43,8.22,3.1,16,4.34,24.08.63,4.15,3.29,7.08,7.59,8.67,6,2.2,11.59-.19,17.37-.51,1.45-.08,2.79-.13,2.56-2.31-.19-1.83-1-2.32-2.71-2.29-4.2.06-8.39,0-12.59,0-2.12,0-3.31-.74-3.69-3-1.4-8.33-3-16.63-4.46-24.94-.32-1.77-.41-3.56,1.87-3.92,2.47-.4,2.9,1.34,3.18,3.35.94,6.92,2.21,13.81,2.93,20.75.32,3.06,1.66,3.29,4.25,3.54,9,.87,17.59-2.22,26.7-2.15-1.54-4-5.61-5.75-6.7-9.65-.36-1.31-1.6-.56-2.52-.54-5.48.12-11-.53-16.39,1.22-1.62.53-3.82.07-4.13-1.66-.41-2.34,2-2.15,3.56-2.43,3.49-.62,6.85-1.37,8.9-4.72.62-1,1.57-1.73,2.81-1.18a2,2,0,0,1,1.17,2.77c-.31.83-1.26,1.83.63,2a6.41,6.41,0,0,0,5-1.57c1.63-1.44.72-2.78.21-4.13C115.12,102.85,114.18,100.85,113,98.1ZM85.68,83.43c-4.78-5.36-3-11.32-3.26-16.93,0-1.11.6-2.12,1.69-2,4.68.48,8.31-1.75,11.89-4.25a2,2,0,0,1,2.7.19,2.07,2.07,0,0,1,0,3,12.23,12.23,0,0,1-5.85,3.82c-6,2-5.91,2.11-5.34,8.4.34,3.78,2.58,5.87,6.16,6.27s6.76-1.06,7.45-4.66c1.13-5.89,1.36-12-.46-17.81A9.22,9.22,0,0,0,96,54.22C87.08,49.44,76.41,55.36,76,64.44c-.28,7-.8,14-1.19,20.93,0,1-.63,2.12.33,3.06C78.38,86.26,81.16,83.64,85.68,83.43Zm21.18,14.76c-.62-3.2-1-6-1.71-8.63-.63-2.42-3.61-5-4.59-4.57-5.18,2.1-9.78,1.26-14.73-1.66-.43,6.15,4.58,8.47,7.22,12C96.58,100.15,102,97.5,106.86,98.19Zm15.26,31.12a24.57,24.57,0,0,0-7.83.52c-2.25.43-1.46,2-1.41,3.23,0,1.08.49,2.1,1.78,1.63C117.45,133.69,120.6,133.1,122.12,129.31Z" transform="translate(-68.68 -48.25)"/></svg>