<svg id="Layer_1" data-name="Layer 1" xmlns="http://www.w3.org/2000/svg" viewBox="0 0 89.7 100.19"><defs><style>.cls-1{fill:#d13148;}.cls-2{fill:#cf2941;}</style></defs><path class="cls-1" d="M55.22,100.18c0-15,.11-29.94-.07-44.9,0-4,1.15-5.4,5.28-5.38q39.64.23,79.3,0c3.86,0,5.13,1.33,5.12,5.13q-.15,45.11,0,90.23c0,3.66-1.27,4.83-4.89,4.82q-40.09-.18-80.19,0c-3.45,0-4.64-1.13-4.61-4.58C55.3,130.4,55.22,115.29,55.22,100.18Zm85.3,0c0-14.09-.09-28.18.07-42.26,0-3-.71-4-3.87-4q-36.79.2-73.58,0c-3,0-4,.79-3.94,3.89q.18,42.25,0,84.52c0,2.83.72,3.7,3.64,3.68q37-.17,74,0c3.34,0,3.73-1.25,3.71-4.08C140.45,128.06,140.52,114.12,140.52,100.18Z" transform="translate(-55.15 -49.9)"/><path class="cls-2" d="M62.07,100c0-12.76.11-25.51-.07-38.27C62,58,63.27,57,66.87,57q33,.2,66,0c4,0,5,1.39,5,5.14q-.18,38.05,0,76.1c0,3.88-1.33,5.06-5.12,5q-32.81-.21-65.61,0c-4.18,0-5.25-1.51-5.19-5.43C62.19,125.24,62.07,112.63,62.07,100Zm4-.08q0,17.84,0,35.66c0,1.68-.5,3.64,2.39,3.61,7.35-.08,14.69,0,22,0,1,0,2.34.17,2.22-1.37-.6-8,2.25-16.5-3.52-23.81-2.34-3-2.24-6.32,0-9.38s5.35-3.38,8.69-2.34a5.11,5.11,0,0,0,3.77.15c3.5-1.43,6.71-.78,9,2.31,2.43,3.24,2.07,6.63-.34,9.74a13.5,13.5,0,0,0-3.12,7.62c-.24,4.83,0,9.69-.12,14.53-.06,2.34,1.23,2.58,3,2.57,6.91,0,13.81-.06,20.72,0,2,0,2.84-.64,2.84-2.76q-.08-36.33,0-72.65c0-2.1-.75-2.82-2.82-2.79-7.05.08-14.1,0-21.16,0-1.15,0-2.64,0-2.52,1.64.57,8-2.22,16.49,3.65,23.77,2.27,2.81,1.92,6.11-.19,9s-5.28,3.62-8.63,2.44a5.47,5.47,0,0,0-4.17,0,7,7,0,0,1-8.64-2.36,7.22,7.22,0,0,1-.06-9.35,16.42,16.42,0,0,0,3.58-9.72c0-4.11-.14-8.23.06-12.33C93,61.49,91.93,61,89.55,61c-6.61.13-13.23.18-19.83,0-2.91-.08-3.74.88-3.71,3.73C66.15,76.45,66.07,88.2,66.07,99.94Zm30.5,27.71c0,3.28,0,5.33,0,7.38,0,2.23-.42,4.23,3.14,4.29s3.53-1.76,3.56-4.35c.11-8.24-1.48-16.81,4.55-24,1.09-1.29.63-2.79-.45-4-1.2-1.35-2.66-1.89-4.29-.84a5.45,5.45,0,0,1-6.19,0,3.18,3.18,0,0,0-4.34.78,3.34,3.34,0,0,0-.23,4.47C96.6,116.59,97,122.63,96.57,127.65Zm0-55.2c.36,5,.1,11-4.17,16.17a3.58,3.58,0,0,0,4.73,5.25,4.69,4.69,0,0,1,5-.27c2,1.11,3.86,1.43,5.44-.63s.45-3.82-.8-5.53a18.39,18.39,0,0,1-3.53-11.07c0-3.94-.14-7.9,0-11.83.12-2.62-.65-3.57-3.41-3.59s-3.52,1.13-3.32,3.66C96.7,66.79,96.57,69,96.57,72.45Z" transform="translate(-55.15 -49.9)"/><path class="cls-1" d="M123.82,68.74c1.77,0,3.53,0,5.29,0,1.3,0,2.37.59,2.34,2.06a1.89,1.89,0,0,1-2,1.88c-3.82,0-7.64,0-11.45,0a1.95,1.95,0,1,1,.13-3.89c1.91,0,3.82,0,5.73,0Z" transform="translate(-55.15 -49.9)"/><path class="cls-1" d="M123.3,78h-4.85c-1.35,0-2.44-.66-2.43-2s1.17-2,2.46-2c3.53,0,7,0,10.58,0,1.3,0,2.42.56,2.39,2s-1.09,2-2.42,2C127.12,78,125.21,78,123.3,78Z" transform="translate(-55.15 -49.9)"/><path class="cls-2" d="M76.36,87.7a47.26,47.26,0,0,1,9,5.14,1.58,1.58,0,0,1,.26,2,1.61,1.61,0,0,1-2.19.87c-3-1.49-5.92-3.08-8.79-4.76a1.73,1.73,0,0,1-.53-2.33C74.46,87.87,75.09,87.62,76.36,87.7Z" transform="translate(-55.15 -49.9)"/><path class="cls-2" d="M126.11,110.74c-.45,1.71-1.59,2.29-3,1.59-2.74-1.36-5.39-2.91-8.05-4.43a1.87,1.87,0,0,1-1-2.23,1.6,1.6,0,0,1,2-1.26,36,36,0,0,1,9.5,5.22C125.91,109.85,126,110.4,126.11,110.74Z" transform="translate(-55.15 -49.9)"/><path class="cls-2" d="M123.06,87.74c1.89-.16,2.61.33,2.9,1.24a1.88,1.88,0,0,1-1,2.22c-2.63,1.54-5.29,3-8,4.43a1.94,1.94,0,0,1-2.68-.75,1.45,1.45,0,0,1,.17-2C117.51,91,120.64,89.17,123.06,87.74Z" transform="translate(-55.15 -49.9)"/><path class="cls-2" d="M85.77,105.6c.07,1.26-.26,1.9-.94,2.28-2.65,1.51-5.29,3-8,4.45a1.92,1.92,0,1,1-2-3.31c2.62-1.55,5.28-3.06,8-4.4C84.21,104,85.43,104.36,85.77,105.6Z" transform="translate(-55.15 -49.9)"/><path class="cls-1" d="M126,63.34c1.91.57,5.29-1.15,5.33,2s-3.28,2.06-5.24,2-5.25,1.23-5.29-1.94S124.12,64,126,63.34Z" transform="translate(-55.15 -49.9)"/><path class="cls-2" d="M80,98c2,.75,5.45-1.12,5.53,1.86.11,3.66-3.58,1.93-5.51,1.93s-5.76,1.69-5.85-1.53C74.09,96.41,78.1,99,80,98Z" transform="translate(-55.15 -49.9)"/><path class="cls-2" d="M120.24,98c2,.88,5.71-1.38,5.57,2.29-.11,3-3.61,1.57-5.52,1.53-2.08,0-5.85,1.55-6-1.5C114.18,96.49,118.23,99,120.24,98Z" transform="translate(-55.15 -49.9)"/></svg>