<svg id="Layer_1" data-name="Layer 1" xmlns="http://www.w3.org/2000/svg" viewBox="0 0 95.13 98.91"><defs><style>.cls-1{fill:#cd1f38;}</style></defs><path class="cls-1" d="M99.8,149.38c-14.29,0-28.58,0-42.87,0-1.47,0-3.65.78-3.53-2,.1-2.48,2.05-1.7,3.44-1.8a18,18,0,0,1,3.44,0c3.41.44,5.26-.66,6.82-4.13a14.48,14.48,0,0,1,11.39-8.54c2.23-.35,5.64-6.72,4.68-8.63-.57-1.14-1.79-.71-2.73-.71-6.77,0-13.54-.28-20.28.07-3.94.21-6.68-2-7.47-6.83a24.1,24.1,0,0,1-.24-3.8q0-26,0-52.06a30.19,30.19,0,0,1,.17-3.43c.54-4.6,3.13-6.92,7.78-6.92h78.84c5.4,0,8.11,2.54,8.25,8.08.15,5.74.05,11.48.05,17.22q0,18.57,0,37.13a26.68,26.68,0,0,1-.31,4.56c-.7,4-3,5.92-7,5.95-6.89,0-13.78.07-20.67,0-2.36,0-3,.41-2.39,3,.93,3.74,2,6.43,6.58,7.12s7.63,4.31,9.47,8.51c1.1,2.54,2.45,3.89,5.38,3.46a43.34,43.34,0,0,1,5.35-.05c1.34,0,2.58,0,2.68,1.83.12,2.19-1.34,2.06-2.79,2h-44Zm.1-94.83c-13,0-26,.07-39.05,0-3.54,0-5.07,1.16-5.05,4.88.11,18.38,0,36.75.06,55.13,0,4.51.59,5.07,5.16,5.08h77.72c4.82,0,5.36-.52,5.37-5.24q0-27.37,0-54.75c0-4.44-.63-5-5.15-5.05Zm-31,90.64h62.17c-3.63-6.71-8.8-9.73-16.18-9.53-9.94.27-19.91.27-29.85,0C77.66,135.45,72.52,138.5,68.91,145.19Zm30.74-12.58h9.91c5.78,0,5.65,0,4.45-5.48-.63-2.89-2-3.88-4.92-3.73-5.2.26-10.42.07-15.63.07-6.53,0-6.53,0-8.16,6.31a2.6,2.6,0,0,1-.13.36c-.61,1.78-.09,2.55,1.9,2.5C91.26,132.55,95.45,132.61,99.65,132.61Z" transform="translate(-52.43 -50.55)"/><path class="cls-1" d="M99.81,113.26c-11.23,0-22.46-.09-33.69.06-3,0-4.28-.63-4.24-4,.15-14.93.11-29.86,0-44.79,0-2.73.71-3.8,3.65-3.78q34.46.15,68.91,0c2.94,0,3.66,1.06,3.64,3.79-.09,14.93-.13,29.86,0,44.79,0,3.33-1.22,4-4.24,3.95C122.52,113.17,111.16,113.26,99.81,113.26Zm21-22.12,1.14.46c.89-6.87,5.39-7.23,10.4-6.58,2,.27,2.61-.54,2.56-2.54-.13-5-.14-10,0-14.93.07-2.17-.61-2.8-2.79-2.79q-32.15.1-64.31,0c-1.92,0-2.65.47-2.64,2.54.09,13.14.07,26.28,0,39.43,0,1.87.36,2.7,2.5,2.69q32.34-.11,64.69,0c2.08,0,2.57-.73,2.53-2.66-.11-5.1,0-10.2-.05-15.31,0-.73.24-1.56-.43-2.15-1.74-1.57-8,.23-9.12,2.46-1.18,2.42-1.77,6.73-4.06,6.62-2.75-.13-2.7-4.46-3.86-7-1.69-3.69-2.55-7.74-4.91-11.64-2,4.39-3.73,8.31-5.5,12.22-.66,1.45-.86,3.67-2.89,3.54s-2-2.34-2.6-3.82c-1-2.51-2-5-3.08-7.71-1.65,1.3-2,2.76-2.62,4.15A3.79,3.79,0,0,1,92,90.87c-3.6,0-7.26-.85-9.72,3.54-1.26,2.26-5.67,1.31-7.39-.87-2-2.58-1.7-7.38.67-9.44s5.52-1.85,7.87.54c3.6,3.68,9.1,2.88,11.17-1.8a20.18,20.18,0,0,1,3.8-6c3.11,3.57,3.34,8.43,6.15,12.26,1.85-4.28,3.46-8.28,5.3-12.16.66-1.4.95-3.62,3-3.59s2.16,2.3,2.72,3.73C117.39,81.7,119.05,86.44,120.77,91.14ZM79.49,86c-2.07-.06-2.31,1.53-2.55,2.81a2.36,2.36,0,0,0,2.38,2.8,2.28,2.28,0,0,0,2.16-2.55C81.33,87.71,81.22,86.21,79.49,86Z" transform="translate(-52.43 -50.55)"/></svg>